<?xml version="1.0" standalone="no"?>
<!DOCTYPE svg PUBLIC "-//W3C//DTD SVG 20010904//EN"
 "http://www.w3.org/TR/2001/REC-SVG-20010904/DTD/svg10.dtd">
<svg version="1.0" xmlns="http://www.w3.org/2000/svg"
 width="133.000000pt" height="117.000000pt" viewBox="0 0 133.000000 117.000000"
 preserveAspectRatio="xMidYMid meet">

<rect x="0" y="1" width="133" height="115" fill="yellow"/>

<g transform="translate(0.000000,117.000000) scale(0.100000,-0.100000)"
fill="#ff0000" stroke="transparent">
<path d="M0 585 l0 -585 30 0 30 0 0 95 0 95 185 0 185 0 0 130 0 130 -185 0
-185 0 0 335 0 335 390 0 390 0 0 -155 0 -155 155 0 155 0 0 155 0 155 90 0
c89 0 90 0 90 25 l0 25 -665 0 -665 0 0 -585z"/>
<path d="M110 785 l0 -285 160 0 160 0 0 155 0 155 180 0 180 0 0 130 0 130
-340 0 -340 0 0 -285z"/>
<path d="M1200 940 l0 -130 65 0 65 0 0 130 0 130 -65 0 -65 0 0 -130z"/>
<path d="M480 630 l0 -130 155 0 155 0 0 130 0 130 -155 0 -155 0 0 -130z"/>
<path d="M840 630 l0 -130 155 0 155 0 0 130 0 130 -155 0 -155 0 0 -130z"/>
<path d="M1200 605 l0 -155 -180 0 -180 0 0 -155 0 -155 -180 0 -180 0 0 -70
0 -70 425 0 425 0 0 380 0 380 -65 0 -65 0 0 -155z"/>
<path d="M480 320 l0 -130 155 0 155 0 0 130 0 130 -155 0 -155 0 0 -130z"/>
<path d="M110 70 l0 -70 160 0 160 0 0 70 0 70 -160 0 -160 0 0 -70z"/>
</g>
</svg>
